<?xml version="1.0" standalone="no"?>
<!DOCTYPE svg PUBLIC "-//W3C//DTD SVG 20010904//EN"
 "http://www.w3.org/TR/2001/REC-SVG-20010904/DTD/svg10.dtd">
<svg version="1.0" xmlns="http://www.w3.org/2000/svg"
 width="400.000000pt" height="400.000000pt" viewBox="0 0 400.000000 400.000000"
 preserveAspectRatio="xMidYMid meet">

<g transform="translate(0.000000,400.000000) scale(0.100000,-0.100000)"
fill="#000000" stroke="none">
<path d="M1250 3468 c-51 -14 -100 -55 -121 -102 -14 -32 -19 -65 -19 -152 0
-175 -37 -256 -137 -305 -39 -19 -68 -23 -182 -27 -174 -6 -211 -22 -256 -112
-23 -45 -32 -232 -15 -313 9 -46 21 -68 53 -102 53 -54 91 -65 238 -65 104 0
120 -3 167 -26 58 -29 103 -84 121 -149 6 -22 11 -91 11 -153 0 -121 12 -163
62 -209 58 -54 40 -53 810 -53 l713 0 50 -24 c54 -25 100 -71 122 -123 21 -51
17 -257 -6 -308 -23 -51 -89 -111 -138 -124 -25 -7 -273 -11 -733 -11 -678 0
-696 1 -740 21 -53 24 -83 50 -113 99 -19 30 -23 54 -27 180 -6 168 -19 206
-89 255 -42 30 -45 30 -188 33 -170 4 -211 -6 -267 -68 -44 -49 -51 -83 -51
-246 1 -123 2 -133 28 -176 46 -79 78 -92 247 -99 158 -6 197 -17 251 -76 53
-57 62 -88 68 -243 7 -167 20 -201 95 -245 l43 -25 747 0 c733 0 748 0 787 20
24 13 51 39 70 67 27 44 29 53 29 154 0 60 5 131 11 159 14 64 61 127 119 160
40 22 60 25 190 30 161 6 190 15 234 72 38 50 49 113 44 251 -4 141 -22 186
-91 234 -38 26 -47 28 -186 33 -166 6 -204 19 -260 87 -46 55 -61 118 -61 253
0 111 -1 118 -29 162 -19 30 -44 52 -73 67 -44 21 -49 21 -750 21 -763 0 -760
0 -831 55 -20 14 -47 50 -62 78 -22 46 -25 62 -25 166 0 131 14 173 71 228 69
66 35 63 819 63 680 0 712 -1 748 -19 20 -11 51 -34 69 -53 51 -53 63 -94 63
-216 0 -132 17 -195 62 -239 55 -51 74 -57 213 -61 150 -5 200 5 251 50 63 56
69 76 69 243 0 171 -10 205 -78 259 -38 30 -41 31 -185 37 -164 6 -199 17
-260 77 -55 55 -65 91 -70 242 -3 105 -8 143 -23 171 -23 47 -69 85 -117 99
-49 13 -1443 12 -1492 -2z"/>
</g>
</svg>
